# AST/ASF file generated using VICON BodyLanguage
# -----------------------------------------------
:version 1.10
:name VICON
:units
  mass 1.0
  length 0.45
  angle deg
:documentation
   .ast/.asf automatically generated from VICON data using
   VICON BodyBuilder and BodyLanguage model FoxedUp or BRILLIANT.MOD
:root
   order TX TY TZ RX RY RZ
   axis XYZ
   position 0 0 0  
   orientation 0 0 0 
:bonedata
  begin
     id 1 
     name lhipjoint
     direction 0.611804 -0.747784 0.257906 
     length 2.29243 
     axis 0 0 0  XYZ
  end
  begin
     id 2 
     name lfemur
     direction 0.34202 -0.939693 0  
     length 7.31159  
     axis 0 0 20  XYZ
    dof rx ry rz
    limits (-160.0 20.0)
           (-70.0 70.0)
           (-60.0 70.0)
  end
  begin
     id 3 
     name ltibia
     direction 0.34202 -0.939693 0   
     length 7.33391   
     axis 0 0 20   XYZ
    dof rx
    limits (-10.0 170.0)
  end
  begin
     id 4 
     name lfoot
     direction 0.122263 -0.335914 0.933924   
     length 1.76083   
     axis -90 7.62852e-016 20   XYZ
    dof rx rz
    limits (-45.0 90.0)
           (-70.0 20.0)
  end
  begin
     id 5 
     name ltoes
     direction 1.53533e-011 -4.2177e-011 1   
     length 0.879206   
     axis -90 7.62852e-016 20   XYZ
    dof rx
    limits (-90.0 20.0)
  end
  begin
     id 6 
     name rhipjoint
     direction -0.646469 -0.721248 0.248754   
     length 2.37677  
     axis 0 0 0  XYZ 
  end
  begin
     id 7 
     name rfemur
     direction -0.34202 -0.939693 0   
     length 7.18623   
     axis 0 0 -20   XYZ
    dof rx ry rz
    limits (-160.0 20.0)
           (-70.0 70.0)
           (-70.0 60.0)
  end
  begin
     id 8 
     name rtibia
     direction -0.34202 -0.939693 0   
     length 7.36567   
     axis 0 0 -20   XYZ
    dof rx
    limits (-10.0 170.0)
 end
 begin
     id 9 
     name rfoot
     direction -0.126681 -0.348054 0.928876   
     length 1.71902  
     axis -90 -7.62852e-016 -20   XYZ
    dof rx rz
    limits (-45.0 90.0)
           (-20.0 70.0)
  end
  begin
     id 10 
     name rtoes
     direction -1.53551e-011 -4.21898e-011 1   
     length 0.857792   
     axis -90 -7.62852e-016 -20   XYZ
    dof rx
    limits (-90.0 20.0)
  end
  begin
     id 11 
     name lowerback
     direction 0.0106509 0.999778 0.0181844   
     length 2.07668   
     axis 0 0 0   XYZ
    dof rx ry rz
    limits (-20.0 45.0)
           (-30.0 30.0)
           (-30.0 30.0)
  end
  begin
     id 12 
     name upperback
     direction -0.00456018 0.999989 -0.000590935   
     length 2.08011   
     axis 0 0 0   XYZ
    dof rx ry rz
    limits (-20.0 45.0)
           (-30.0 30.0)
           (-30.0 30.0)
  end
  begin
     id 13 
     name thorax
     direction -0.00910382 0.999916 -0.00923765   
     length 2.07397   
     axis 0 0 0   XYZ
    dof rx ry rz
    limits (-20.0 45.0)
           (-30.0 30.0)
           (-30.0 30.0)
  end
  begin
     id 14 
     name lowerneck
     direction 0.00171967 0.99778 0.0665733   
     length 1.67556   
     axis 0 0 0   XYZ
    dof rx ry rz
    limits (-20.0 45.0)
           (-30.0 30.0)
           (-30.0 30.0)
  end
  begin
     id 15 
     name upperneck
     direction -0.0143166 0.991302 -0.130828   
     length 1.68462   
     axis 0 0 0   XYZ
    dof rx ry rz
    limits (-20.0 45.0)
           (-30.0 30.0)
           (-30.0 30.0)
  end
  begin
     id 16
     name head
     direction -0.00606378 0.998665 -0.0512995  
     length 1.69269  
     axis 0 0 0   XYZ
    dof rx ry rz
    limits (-20.0 45.0)
           (-30.0 30.0)
           (-30.0 30.0)
  end
  begin
     id 17 
     name lclavicle
     direction 0.9638 0.179341 0.197297  
     length 4.12888  
     axis 0 0 0   XYZ
    dof ry rz
    limits (-20.0 10.0)
           (0.0 20.0)
  end
  begin
     id 18 
     name lhumerus
     direction 1 -4.48972e-011 -2.47351e-027   
     length 5.01834   
     axis -180 -30 -90   XYZ
    dof rx ry rz
    limits (-60.0 90.0)
           (-90.0 90.0)
           (-90.0 90.0)
  end
  begin
     id 19
     name lradius
     direction 1 -4.48965e-011 1.51591e-026   
     length 3.4869   
     axis -180 -30 -90   XYZ
    dof rx
    limits (-10.0 170.0)
  end
  begin
     id 20
     name lwrist
     direction 1 -4.48957e-011 2.70032e-026   
     length 1.74345   
     axis -1.81515e-014 90 90   XYZ
    dof ry
    limits (-180.0 0.0)
 end
  begin
     id 21 
     name lhand
     direction 1 -4.48951e-011 5.40064e-026   
     length 0.76799   
     axis -3.44607e-014 90 90   XYZ
    dof rx rz
    limits (-90.0 90.0)
           (-45.0 45.0)
  end
  begin
     id 22 
     name lfingers
     direction 1 -4.48971e-011 1.08013e-025   
     length 0.619174   
     axis -6.89214e-014 90 90   XYZ
    dof rx
    limits (0.0 90.0)
  end
  begin
     id 23
     name lthumb
     direction 0.707107 -6.34931e-011 0.707107   
     length 0.889013   
     axis -90 45 2.85299e-015   XYZ
    dof rx rz
    limits (-45.0 45.0)
           (-45.0 45.0)
  end
  begin
     id 24 
     name rclavicle
     direction -0.961409 0.252588 0.109054   
     length 4.04305  
     axis 0 0 0   XYZ 
    dof ry rz
    limits (-10.0 20.0)
           (-20.0 0.0)
  end
  begin
     id 25 
     name rhumerus
     direction -1 -4.4897e-011 1.33872e-017  
     length 4.70164   
     axis -180 30 90   XYZ
    dof rx ry rz
    limits (-90.0 60.0)
           (-90.0 90.0)
           (-90.0 90.0)
  end
  begin
     id 26 
     name rradius
     direction -1 -4.48954e-011 1.83844e-026   
     length 3.49911   
     axis -180 30 90   XYZ
    dof rx
    limits (-10.0 170.0)
  end
  begin
     id 27 
     name rwrist
     direction -1 -4.49008e-011 2.70032e-026   
     length 1.74955   
     axis -1.81515e-014 -90 -90   XYZ
    dof ry
    limits (-180.0 0.0)
  end
  begin
     id 28
     name rhand
     direction -1 -4.48916e-011 5.40064e-026   
     length 0.739335   
     axis -3.44607e-014 -90 -90   XYZ
    dof rx rz
    limits (-90.0 90.0)
           (-45.0 45.0)
  end
  begin
     id 29
     name rfingers
     direction -1 -4.48987e-011 1.08013e-025   
     length 0.596071   
     axis -6.89214e-014 -90 -90   XYZ
    dof rx
    limits (0.0 90.0)
  end
  begin
     id 30
     name rthumb
     direction -0.707107 -6.34935e-011 0.707107   
     length 0.855843   
     axis -90 -45 -2.85299e-015   XYZ
    dof rx rz
    limits (-45.0 45.0)
           (-45.0 45.0)
  end
:hierarchy
  begin
    root lhipjoint rhipjoint lowerback
    lhipjoint lfemur
    lfemur ltibia
    ltibia lfoot
    lfoot ltoes
    rhipjoint rfemur
    rfemur rtibia
    rtibia rfoot
    rfoot rtoes
    lowerback upperback
    upperback thorax
    thorax lowerneck lclavicle rclavicle
    lowerneck upperneck
    upperneck head
    lclavicle lhumerus
    lhumerus lradius
    lradius lwrist
    lwrist lhand lthumb
    lhand lfingers
    rclavicle rhumerus
    rhumerus rradius
    rradius rwrist
    rwrist rhand rthumb
    rhand rfingers
  end

#!OML:ASF I:\salsa\salsa 7_09\Patient 1\Session 1\dancermale.ASF
:FULLY-SPECIFIED
:DEGREES
315
root 7.05733 16.9543 0.991895 -133.2 86.9021 -140.51
lowerback -6.86711 2.24234 3.53272
upperback 1.27682 2.76867 -1.59457
thorax 5.43617 1.50798 -3.32617
lowerneck -9.66582 -2.73369 2.02081
upperneck 38.8407 -1.943 -1.38896
head 15.1113 -0.0197193 -1.05436
rclavicle 3.51352e-014 -1.15295e-014
rhumerus -25.6667 -4.74367 -85.4064
rradius 89.689
rwrist -57.0548
rhand -16.6945 -15.2575
rfingers 7.12502
rthumb 9.53016 -45.022
lclavicle 3.51352e-014 -1.15295e-014
lhumerus -12.6107 1.76053 92.3872
lradius 72.5978
lwrist 59.6682
lhand -26.354 38.2337
lfingers 7.12502
lthumb 0.20382 68.2133
rfemur -16.5521 6.86011 27.1352
rtibia 33.9673
rfoot -25.8439 -11.8756
rtoes 4.41185
lfemur -42.5923 11.721 -15.8643
ltibia 52.1945
lfoot -10.1007 2.07153
ltoes -5.88622
316
root 7.08358 16.9486 0.971694 -121.88 87.4037 -129.439
lowerback -6.77574 2.36008 3.49206
upperback 1.13606 2.92822 -1.51318
thorax 5.24364 1.57848 -3.20454
lowerneck -9.59384 -2.6439 2.03736
upperneck 38.7547 -1.72961 -1.63062
head 15.0524 0.0359774 -1.12644
rclavicle 4.02042e-014 -5.96354e-015
rhumerus -25.453 -4.8878 -86.1543
rradius 89.1219
rwrist -57.4821
rhand -17.3922 -14.9249
rfingers 7.12502
rthumb 8.85684 -44.719
lclavicle 4.02042e-014 -5.96354e-015
lhumerus -11.0101 2.58782 91.7138
lradius 72.1129
lwrist 58.2346
lhand -26.0547 38.3387
lfingers 7.12502
lthumb 0.492892 68.3179
rfemur -16.86 7.65539 27.0948
rtibia 34.2509
rfoot -25.9263 -12.1581
rtoes 4.01026
lfemur -42.5773 12.7551 -16.0241
ltibia 49.0425
lfoot -9.40722 2.57704
ltoes -6.69402
317
root 7.13499 16.9444 0.940497 -120.357 87.6266 -128.026
lowerback -6.85604 2.33365 3.48759
upperback 1.08443 2.89146 -1.52037
thorax 5.232 1.55924 -3.2121
lowerneck -9.49453 -2.58115 2.0491
upperneck 38.7038 -1.57903 -1.78794
head 15.0051 0.0789696 -1.17086
rclavicle -1.74434e-014 -3.57812e-015
rhumerus -25.3625 -5.20941 -86.7475
rradius 88.5346
rwrist -57.1872
rhand -17.3488 -15.1243
rfingers 7.12502
rthumb 8.89877 -44.9166
lclavicle -1.74434e-014 -3.57812e-015
lhumerus -9.53518 3.20468 90.9495
lradius 71.9166
lwrist 56.4953
lhand -25.6626 38.531
lfingers 7.12502
lthumb 0.871623 68.509
rfemur -16.7359 7.81396 26.8555
rtibia 34.2169
rfoot -26.1624 -12.3683
rtoes 3.32953
lfemur -42.2919 13.4538 -16.4844
ltibia 46.0498
lfoot -7.897 2.83284
ltoes -5.81617
318
root 7.20343 16.9398 0.898063 -127.743 87.744 -135.385
lowerback -7.01526 2.21546 3.48397
upperback 1.10626 2.73327 -1.59659
thorax 5.33551 1.48441 -3.30325
lowerneck -9.57854 -2.54642 1.97843
upperneck 38.8399 -1.50267 -1.78201
head 15.0959 0.106633 -1.14642
rclavicle 1.78906e-015 -1.19271e-015
rhumerus -25.3603 -5.4996 -87.2647
rradius 87.9543
rwrist -57.0942
rhand -17.3058 -14.7205
rfingers 7.12502
rthumb 8.94023 -44.5111
lclavicle 1.78906e-015 -1.19271e-015
lhumerus -8.09156 3.50334 90.0645
lradius 71.7853
lwrist 54.9966
lhand -25.4912 38.8508
lfingers 7.12502
lthumb 1.03714 68.828
rfemur -16.3903 7.35782 26.4113
rtibia 34.1396
rfoot -26.5138 -12.464
rtoes 2.12351
lfemur -41.7753 13.7923 -17.1582
ltibia 43.4265
lfoot -5.27387 2.98025
ltoes -4.732
319
root 7.27958 16.9378 0.85495 -137.175 87.8129 -144.802
lowerback -7.28117 2.07683 3.34784
upperback 1.12149 2.55429 -1.62747
thorax 5.48185 1.39494 -3.27257
lowerneck -9.65874 -2.52418 1.96446
upperneck 38.9843 -1.41395 -1.89292
head 15.1879 0.132948 -1.17945
rclavicle 6.95746e-015 -3.97569e-015
rhumerus -25.4042 -5.5885 -87.5732
rradius 87.3354
rwrist -57.398
rhand -17.6118 -14.5925
rfingers 7.12502
rthumb 8.64495 -44.3955
lclavicle 6.95746e-015 -3.97569e-015
lhumerus -6.6946 3.61312 89.1875
lradius 71.6041
lwrist 53.9189
lhand -25.1415 39.1218
lfingers 7.12502
lthumb 1.37491 69.0971
rfemur -16.1702 6.68326 25.8944
rtibia 34.283
rfoot -26.7116 -12.4523
rtoes 1.28205
lfemur -41.1238 13.8331 -17.7943
ltibia 41.0485
lfoot -2.50721 3.1152
ltoes -1.23576
320
root 7.3312 16.9351 0.810127 -123.058 88.5157 -130.905
lowerback -7.39154 2.28021 3.26941
upperback 0.93703 2.82921 -1.602
thorax 5.3685 1.52323 -3.16639
lowerneck -9.48314 -2.48625 2.10456
upperneck 38.9502 -1.25618 -2.22617
head 15.1272 0.178613 -1.3188
rclavicle -9.44227e-015 -2.38542e-014
rhumerus -25.4561 -5.89676 -87.4458
rradius 86.2626
rwrist -55.8783
rhand -15.4144 -15.4575
rfingers 7.12502
rthumb 10.7651 -45.1616
lclavicle -9.44227e-015 -2.38542e-014
lhumerus -5.37746 3.64896 88.3698
lradius 71.366
lwrist 53.0209
lhand -24.4857 39.2341
lfingers 7.12502
lthumb 2.00825 69.2044
rfemur -16.7771 6.79045 25.455
rtibia 35.2224
rfoot -26.7723 -12.1214
rtoes 0.743672
lfemur -40.635 14.4781 -18.1984
ltibia 39.7146
lfoot -1.81079 3.50792
ltoes 0.176608
321
root 7.38231 16.9239 0.753082 -81.2462 88.8294 -89.1411
lowerback -7.38183 2.56339 3.44127
upperback 0.811738 3.18691 -1.50791
thorax 5.26541 1.69979 -3.12204
lowerneck -9.24542 -2.44471 2.18204
upperneck 38.8954 -1.10366 -2.47906
head 15.0445 0.224747 -1.41237
rclavicle -3.18055e-015 -2.78299e-015
rhumerus -25.5625 -5.82568 -87.2931
rradius 85.5463
rwrist -56.2452
rhand -14.8301 -15.189
rfingers 7.12502
rthumb 11.3286 -44.863
lclavicle -3.18055e-015 -2.78299e-015
lhumerus -4.03421 3.68846 87.6232
lradius 70.9635
lwrist 51.653
lhand -23.2458 39.2871
lfingers 7.12502
lthumb 3.20568 69.2427
rfemur -17.2931 7.10014 25.2289
rtibia 36.3891
rfoot -26.9145 -11.7631
rtoes 0.0794725
lfemur -39.9041 15.1105 -18.3058
ltibia 39.4941
lfoot -2.72052 4.57348
ltoes -3.59912
322
root 7.47905 16.8963 0.680982 -125.11 89.2213 -132.749
lowerback -7.78879 2.3046 3.15806
upperback 0.918118 2.85628 -1.5165
thorax 5.56558 1.53398 -2.99732
lowerneck -9.17571 -2.46038 2.06514
upperneck 39.0707 -1.03698 -2.55937
head 15.1183 0.237007 -1.41537
rclavicle 7.7526e-015 -4.17448e-015
rhumerus -25.8298 -5.2814 -87.2479
rradius 85.4483
rwrist -59.1285
rhand -16.777 -13.4801
rfingers 7.12502
rthumb 9.45049 -43.2482
lclavicle 7.7526e-015 -4.17448e-015
lhumerus -2.75129 3.68182 86.9609
lradius 70.4244
lwrist 50.1555
lhand -21.9109 38.9981
lfingers 7.12502
lthumb 4.49478 68.9304
rfemur -16.8742 6.03524 24.3806
rtibia 36.9263
rfoot -27.0967 -11.7588
rtoes -0.740528
lfemur -38.7968 14.1156 -19.0874
ltibia 39.0404
lfoot -3.72133 4.36592
ltoes -5.77095
323
root 7.56519 16.8801 0.627856 -165.742 89.1478 -173.091
lowerback -7.96719 2.10131 2.65582
upperback 0.959886 2.62221 -1.39325
thorax 5.66159 1.40213 -2.61009
lowerneck -9.22383 -2.50277 1.92062
upperneck 39.3327 -0.973301 -2.71238
head 15.2636 0.236319 -1.44734
rclavicle -2.08724e-015 1.43125e-014
rhumerus -26.142 -5.13002 -86.8702
rradius 85.1077
rwrist -59.6318
rhand -14.8178 -12.2716
rfingers 7.12502
rthumb 11.3405 -41.945
lclavicle -2.08724e-015 1.43125e-014
lhumerus -1.62685 3.48312 86.4191
lradius 69.8896
lwrist 49.5613
lhand -22.1495 40.5724
lfingers 7.12502
lthumb 4.26437 70.5095
rfemur -16.647 5.30358 23.7371
rtibia 37.8317
rfoot -27.21 -11.9544
rtoes -2.30251
lfemur -37.5955 13.1569 -19.4882
ltibia 38.2272
lfoot -4.78232 4.264
ltoes -9.37777
324
root 7.67053 16.8708 0.579103 -181.772 87.974 -188.689
lowerback -8.35285 1.61953 2.05545
upperback 1.13498 2.01567 -1.12448
thorax 5.99012 1.08335 -2.05979
lowerneck -9.20649 -2.54328 1.79558
upperneck 39.4358 -0.884974 -2.97767
head 15.3136 0.227872 -1.52477
rclavicle 6.44808e-015 -7.95139e-016
rhumerus -26.4217 -5.12606 -86.2715
rradius 84.4321
rwrist -58.8648
rhand -13.0104 -12.5524
rfingers 7.12502
rthumb 13.0832 -42.122
lclavicle 6.44808e-015 -7.95139e-016
lhumerus -0.560173 3.26248 86.0418
lradius 69.3592
lwrist 49.1534
lhand -21.4741 40.4414
lfingers 7.12502
lthumb 4.91661 70.3644
rfemur -16.0314 3.88455 23.2299
rtibia 38.5206
rfoot -27.2207 -12.2753
rtoes -4.34313
lfemur -36.2449 11.4572 -19.8144
ltibia 37.258
lfoot -5.55188 3.9594
ltoes -11.5569
325
root 7.69409 16.8391 0.537636 -230.408 88.6587 -237.556
lowerback -8.16725 1.945 0.924345
upperback 0.832525 2.56825 -1.12223
thorax 5.54401 1.31524 -1.35742
lowerneck -9.06571 -2.66107 1.56902
upperneck 39.4863 -0.932547 -3.11956
head 15.3055 0.163688 -1.549
rclavicle -5.12802e-015 6.70898e-015
rhumerus -27 -4.86093 -85.9096
rradius 84.5254
rwrist -61.3859
rhand -13.6714 -11.2596
rfingers 7.12502
rthumb 12.4459 -40.869
lclavicle -5.12802e-015 6.70898e-015
lhumerus 0.386369 2.83194 85.7082
lradius 68.7592
lwrist 48.6038
lhand -20.2213 40.4296
lfingers 7.12502
lthumb 6.12621 70.321
rfemur -17.7885 4.39755 21.9038
rtibia 41.2172
rfoot -27.0833 -11.8723
rtoes -5.69267
lfemur -36.0656 11.5177 -20.7074
ltibia 36.8502
lfoot -5.82941 4.9365
ltoes -12.128
326
root 7.67771 16.8178 0.435243 -278.127 87.8688 -285.154
lowerback -6.99938 2.3458 0.901709
upperback 0.461951 3.13313 -1.59159
thorax 4.5418 1.59826 -1.81379
lowerneck -9.00779 -2.78368 1.42928
upperneck 39.6296 -1.08741 -3.0521
head 15.3615 0.0952669 -1.51847
rclavicle 2.6867e-015 1.6201e-014
rhumerus -27.6861 -5.16428 -85.7639
rradius 84.3521
rwrist -62.4508
rhand -12.3201 -10.7095
rfingers 7.12502
rthumb 13.7485 -40.2352
lclavicle 2.6867e-015 1.6201e-014
lhumerus 1.07648 1.97424 85.0717
lradius 68.1014
lwrist 48.7073
lhand -19.762 40.3309
lfingers 7.12502
lthumb 6.56962 70.209
rfemur -19.4315 4.17223 20.2221
rtibia 44.2834
rfoot -26.5741 -10.6572
rtoes -6.56033
lfemur -35.698 11.6358 -22.1257
ltibia 36.6045
lfoot -6.05831 6.01087
ltoes -11.9514
327
root 7.72405 16.8047 0.392006 -274.677 87.2128 -281.969
lowerback -7.35754 2.24701 0.307829
upperback 0.314389 3.06083 -1.71567
thorax 4.5623 1.55037 -1.6069
lowerneck -9.04533 -2.82816 1.29982
upperneck 39.6777 -1.10198 -3.10801
head 15.396 0.0632647 -1.52268
rclavicle -3.18253e-014 1.35733e-015
rhumerus -28.0494 -5.59628 -85.471
rradius 83.7923
rwrist -62.0208
rhand -8.88894 -11.1488
rfingers 7.12502
rthumb 17.0533 -40.4203
lclavicle -3.18253e-014 1.35733e-015
lhumerus 1.70077 1.30461 84.5996
lradius 67.5251
lwrist 49.2186
lhand -19.8629 40.307
lfingers 7.12502
lthumb 6.47221 70.1881
rfemur -20.9983 3.50159 19.1666
rtibia 46.8745
rfoot -25.6958 -10.2308
rtoes -7.47832
lfemur -35.8581 11.4517 -23.2306
ltibia 36.5497
lfoot -6.46202 6.35284
ltoes -11.2767
